# xmcd
# 
# Track frame offsets:
#     150
#     16166
#     26013
#     38324
#     52589
#     71168
#     84243
#     100535
#     112336
#     128684
#     140110
#     151111
# 
# Disc length: 2170
# 
# Revision: 0
# Processed by: cddbd v1.5.2PL0 Copyright (c) Steve Scherf et al.
# Submitted via: fre:ac v1.0.17
# 
DISCID=8a08780c
DTITLE=Various Artist - Best of Country
DYEAR=2010
DGENRE=Country
TTITLE0=Pam Tillis - Shake the Sugar Tree
TTITLE1=Mickey Gilley - Talk To Me
TTITLE2=Tanya Tucker - Don't Believe My Heart Can Stand Another You
TTITLE3=T.G. Sheppard - Do You Wanna Go to Heaven
TTITLE4=Juice Newton - Angel of the Morning
TTITLE5=T. Graham Brown - I Tell It Like It Used To Be
TTITLE6=Exile - She's a Miracle
TTITLE7=Willie Nelson - Night Life
TTITLE8=Janie Fricke - It Ain't Easy Being Easy
TTITLE9=Mickey Gilley - That's All That Matters to Me LIVE
TTITLE10=Merle Haggard - Silver Wings
TTITLE11=Lee Greenwood - God Bless the U.S.A. LIVE
EXTD=
EXTT0=
EXTT1=
EXTT2=
EXTT3=
EXTT4=
EXTT5=
EXTT6=
EXTT7=
EXTT8=
EXTT9=
EXTT10=
EXTT11=
PLAYORDER=
